<svg xmlns="http://www.w3.org/2000/svg" height="40" viewBox="0 -960 960 960" width="40"><path d="M146.014-137.609q-36.14 0-62.7-26.728-26.56-26.727-26.56-62.532v-506.262q0-35.871 26.56-62.645t62.7-26.774h667.972q36.205 0 62.812 26.774t26.607 62.645v506.262q0 35.805-26.607 62.532-26.607 26.728-62.812 26.728H146.014Zm667.972-511.45-310.63 198.847q-6.271 3.849-11.827 5.556-5.555 1.706-11.575 1.706-6.019 0-11.529-1.706-5.51-1.707-11.781-5.556l-310.63-198.847v422.19h667.972v-422.19ZM480-518.942l335.457-214.189H145.21L480-518.942ZM146.014-649.059v7.703-58.685 1.382-34.472 34.181-1.148 58.742-7.703 422.19-422.19Z"/></svg>